<svg width="60" height="66" viewBox="0 0 60 66" fill="none" xmlns="http://www.w3.org/2000/svg">
<ellipse cx="28.5" cy="45.5" rx="23.5" ry="20.5" fill="#100F0F"/>
<path d="M18.0001 20.5C18.0001 25.1944 14.1945 29 9.50007 29C4.80565 29 1.00007 25.1944 1.00007 20.5C1.00007 15.8056 0.30558 10 5 10C9.69442 10 18.0001 15.8056 18.0001 20.5Z" fill="#100F0F"/>
<path d="M59 22.5C59 27.1944 55.1944 31 50.5 31C45.8056 31 42 27.1944 42 22.5C42 17.8056 50.8056 11 55.5 11C60.1944 11 59 17.8056 59 22.5Z" fill="#100F0F"/>
<path d="M38 11.5C38 16.1944 34.1944 20 29.5 20C24.8056 20 21 16.1944 21 11.5C21 6.80558 24.8056 0 29.5 0C34.1944 0 38 6.80558 38 11.5Z" fill="#100F0F"/>
<g clip-path="url(#clip0_1_12)">
<path d="M34.6321 34.0156C27.9319 33.7705 22.4439 36.4891 22.4439 36.4891L22.4399 50.2851C21.7577 49.9872 20.9281 49.9166 20.0855 50.1418C18.2689 50.6274 17.0793 52.3022 17.4285 53.8834C17.7777 55.4645 19.5333 56.3529 21.3497 55.8676C23.0625 55.4097 24.2173 53.8944 24.0511 52.3977V42.0896C24.0511 42.0896 27.9319 40.5971 32.9657 40.2229V47.8897C32.2909 47.6055 31.4771 47.541 30.6499 47.7621C28.8333 48.2474 27.6437 49.9223 27.9929 51.5036C28.3419 53.0848 30.0975 53.9729 31.9141 53.4876C33.5003 53.0637 34.6083 51.7327 34.6315 50.3495L34.6321 50.3504V34.0156Z" fill="white"/>
</g>
<defs>
<clipPath id="clip0_1_12">
<rect width="20" height="22" fill="white" transform="translate(16 34)"/>
</clipPath>
</defs>
</svg>
