<svg width="60" height="66" viewBox="0 0 60 66" fill="none" xmlns="http://www.w3.org/2000/svg">
<ellipse cx="28.5" cy="45.5" rx="23.5" ry="20.5" fill="white"/>
<path d="M18.0001 20.5C18.0001 25.1944 14.1945 29 9.50007 29C4.80565 29 1.00007 25.1944 1.00007 20.5C1.00007 15.8056 0.30558 10 5 10C9.69442 10 18.0001 15.8056 18.0001 20.5Z" fill="white"/>
<path d="M59 22.5C59 27.1944 55.1944 31 50.5 31C45.8056 31 42 27.1944 42 22.5C42 17.8056 50.8056 11 55.5 11C60.1944 11 59 17.8056 59 22.5Z" fill="white"/>
<path d="M38 11.5C38 16.1944 34.1944 20 29.5 20C24.8056 20 21 16.1944 21 11.5C21 6.80558 24.8056 0 29.5 0C34.1944 0 38 6.80558 38 11.5Z" fill="white"/>
<g clip-path="url(#clip0_8_40)">
<path d="M34.6322 34.0156C27.932 33.7705 22.444 36.4891 22.444 36.4891L22.44 50.2851C21.7578 49.9872 20.9282 49.9166 20.0856 50.1418C18.269 50.6274 17.0794 52.3022 17.4286 53.8834C17.7778 55.4645 19.5334 56.3529 21.3498 55.8676C23.0626 55.4097 24.2174 53.8944 24.0512 52.3977V42.0896C24.0512 42.0896 27.932 40.5971 32.9658 40.2229V47.8897C32.291 47.6055 31.4772 47.541 30.65 47.7621C28.8334 48.2474 27.6438 49.9223 27.993 51.5036C28.342 53.0848 30.0976 53.9729 31.9142 53.4876C33.5004 53.0637 34.6084 51.7327 34.6316 50.3495L34.6322 50.3504V34.0156Z" fill="#100F0F"/>
</g>
<defs>
<clipPath id="clip0_8_40">
<rect width="20" height="22" fill="white" transform="translate(16 34)"/>
</clipPath>
</defs>
</svg>
